PathFileType	4	(X/Y/Z)	/Users/itak/Documents/Research/Walk-IL/dataset/trc/00375_00011.trc
DataRate	CameraRate	NumFrames	NumMarkers	Units	OrigDataRate	OrigDataStartFrame	OrigNumFrames
100.000000	100.000000	4	56	mm	100.000000	251	502
Frame#	Time	RPSI			LPSI			L3			STRN			T10			C7			CLAV			RBAK			LBAK			LSHO			LUPA			LAEL			LAOL			LWPS			LFRA			LHPS			LHTS			RSHO			RUPA			RAEL			RAOL			RWTS			RWPS			RFRA			RIFD			RHTS			RHPS			RBHD			LFHD			RFHD			LBHD			LHIP			RHIP			RASI			LASI			LKNE			LTHI			LANK			LTIP			LTOE			LMT1			LMT5			LHEE			RKNE			RTHI			RANK			RTIP			RTOE			RMT1			RMT5			RHEE			LIFD			LWTS			*53			*54			*55			
		X1	Y1	Z1	X2	Y2	Z2	X3	Y3	Z3	X4	Y4	Z4	X5	Y5	Z5	X6	Y6	Z6	X7	Y7	Z7	X8	Y8	Z8	X9	Y9	Z9	X10	Y10	Z10	X11	Y11	Z11	X12	Y12	Z12	X13	Y13	Z13	X14	Y14	Z14	X15	Y15	Z15	X16	Y16	Z16	X17	Y17	Z17	X18	Y18	Z18	X19	Y19	Z19	X20	Y20	Z20	X21	Y21	Z21	X22	Y22	Z22	X23	Y23	Z23	X24	Y24	Z24	X25	Y25	Z25	X26	Y26	Z26	X27	Y27	Z27	X28	Y28	Z28	X29	Y29	Z29	X30	Y30	Z30	X31	Y31	Z31	X32	Y32	Z32	X33	Y33	Z33	X34	Y34	Z34	X35	Y35	Z35	X36	Y36	Z36	X37	Y37	Z37	X38	Y38	Z38	X39	Y39	Z39	X40	Y40	Z40	X41	Y41	Z41	X42	Y42	Z42	X43	Y43	Z43	X44	Y44	Z44	X45	Y45	Z45	X46	Y46	Z46	X47	Y47	Z47	X48	Y48	Z48	X49	Y49	Z49	X50	Y50	Z50	X51	Y51	Z51	X52	Y52	Z52	X53	Y53	Z53	X54	Y54	Z54	X55	Y55	Z55	X56	Y56	Z56	

252	2.51	-727.307373046875	962.8806762695312	-52.77221298217773	-700.7634887695312	964.1153564453125	-180.7635498046875	-724.0004272460938	1033.974609375	-116.3771743774414	-480.24365234375	1201.720947265625	-74.99227142333984	-722.5308227539062	1152.059692382812	-115.959587097168	-660.2191772460938	1397.060302734375	-126.2998580932617	-514.9248657226562	1328.273803710938	-88.65299224853516	-736.0916748046875	1263.89990234375	-66.72640228271484	-653.6946411132812	1359.891723632812	-225.1976623535156	-558.21826171875	1370.479614257812	-264.6352844238281	-584.78759765625	1256.812377929688	-337.7268981933594	-603.6109619140625	1055.396362304688	-360.2321472167969	-672.9486694335938	1050.641967773438	-311.1567077636719	-574.9608764648438	797.5311279296875	-371.9067077636719	-601.9844360351562	949.4114990234375	-370.6602478027344	-586.63330078125	727.4974975585938	-366.9891052246094	-536.80322265625	724.0927734375	-325.4499206542969	-641.3846435546875	1383.990478515625	42.79909896850586	-672.288330078125	1323.837036132812	104.6441802978516	-689.9411010742188	1063.668823242188	168.2271423339844	-714.8157348632812	1045.102294921875	78.53594207763672	-514.7747802734375	887.7820434570312	153.2582397460938	-553.8251953125	857.6644287109375	212.8704681396484	-656.7802734375	1003.300842285156	188.1090393066406	-441.2034912109375	731.7214965820312	172.11865234375	-453.3059387207031	803.8221435546875	178.3154296875	-509.5441284179688	785.3836059570312	216.5449523925781	-618.1109619140625	1598.410766601562	-44.09273529052734	-415.4415283203125	1581.178344726562	-86.87049102783203	-462.84033203125	1585.51416015625	2.119002342224121	-575.4588012695312	1592.072998046875	-181.8053741455078	-591.3038330078125	913.172119140625	-263.1532897949219	-673.5879516601562	903.4896240234375	69.78120422363281	-563.111083984375	930.6268310546875	51.15397262573242	-489.0716857910156	939.0540161132812	-177.0043640136719	-390.9549865722656	492.6393432617188	-231.6336364746094	-435.0013732910156	618.619873046875	-246.6260681152344	-412.5003662109375	55.23455429077148	-271.729736328125	-394.2607116699219	269.2718811035156	-266.1199951171875	-216.8164367675781	77.69759368896484	-189.2707977294922	-287.5064697265625	53.53466033935547	-156.0757751464844	-287.9578247070312	65.16461944580078	-269.0182189941406	-453.3919982910156	45.21969985961914	-209.0710296630859	-633.8280029296875	438.5281982421875	0.2522878050804138	-605.2221069335938	695.260498046875	67.32968139648438	-759.2573852539062	52.56972503662109	-91.57167816162109	-638.1897583007812	317.8889770507812	-32.99090576171875	-561.395263671875	43.7848014831543	-116.6639099121094	-609.8507690429688	37.16241836547852	-166.1168670654297	-662.8112182617188	39.11508941650391	-59.38398361206055	-801.2706298828125	55.78570175170898	-146.5142364501953	-561.27734375	644.9502563476562	-297.2882080078125	-541.9823608398438	804.9099731445312	-311.5895690917969	nan	nan	nan	nan	nan	nan	nan	nan	nan	
253	2.52	-718.483154296875	961.5911254882812	-53.24944305419922	-690.1641235351562	962.611083984375	-180.8095855712891	-714.6387329101562	1032.32861328125	-116.5046920776367	-471.3993225097656	1199.863037109375	-72.544921875	-713.7362060546875	1150.305908203125	-115.53564453125	-651.06689453125	1395.25537109375	-125.2708358764648	-506.1203308105469	1326.358764648438	-86.40679931640625	-727.48681640625	1262.119018554688	-66.20057678222656	-643.8241577148438	1358.024536132812	-224.1002807617188	-548.073974609375	1368.472290039062	-262.8968200683594	-574.540771484375	1254.790283203125	-335.9750366210938	-594.5084838867188	1053.431030273438	-357.9690856933594	-664.1730346679688	1049.238525390625	-309.175537109375	-568.183837890625	795.2656860351562	-369.5968933105469	-593.7445068359375	947.4637451171875	-368.33447265625	-580.7744140625	725.3738403320312	-364.68115234375	-531.2556762695312	721.301513671875	-322.8733825683594	-633.5029907226562	1382.231323242188	43.96393966674805	-664.8395385742188	1322.147338867188	105.6472625732422	-682.7705078125	1062.046264648438	169.7304992675781	-707.3248901367188	1043.3115234375	79.99604034423828	-505.8532409667969	888.258056640625	154.9834747314453	-544.5455932617188	857.6304321289062	214.4977874755859	-649.2127075195312	1002.109802246094	189.6990509033203	-430.314697265625	733.1405639648438	173.961669921875	-443.241455078125	805.1512451171875	180.0678100585938	-499.430908203125	785.9503784179688	218.3587951660156	-609.891845703125	1596.514038085938	-43.18513488769531	-406.8350524902344	1579.645141601562	-84.25101470947266	-454.9372863769531	1584.082641601562	4.327687740325928	-566.0941772460938	1589.992065429688	-180.5161895751953	-579.8457641601562	910.9861450195312	-261.6618347167969	-666.7564697265625	902.3781127929688	70.35532379150391	-555.8041381835938	929.1217651367188	52.97488784790039	-478.7062072753906	936.98681640625	-174.1925201416016	-381.6540832519531	489.0966491699219	-229.3836822509766	-427.3612060546875	614.82568359375	-244.8884582519531	-376.3896789550781	52.00204467773438	-264.1370239257812	-371.6938781738281	266.9386901855469	-261.2525634765625	-185.5623779296875	86.41497802734375	-175.2285308837891	-255.9641418457031	58.91928863525391	-144.2871856689453	-252.7310333251953	68.90985870361328	-257.2120666503906	-418.873046875	40.42408752441406	-202.8710174560547	-630.0265502929688	437.474365234375	1.567565441131592	-600.1041870117188	694.2421875	68.73998260498047	-759.1868896484375	52.65305709838867	-91.50769805908203	-635.5484008789062	316.7391052246094	-32.08307647705078	-561.3531494140625	43.66181182861328	-116.5600204467773	-609.8641357421875	37.23550415039062	-166.0567016601562	-662.794189453125	39.02509307861328	-59.27028274536133	-801.1549682617188	56.15781784057617	-146.3976593017578	-556.8440551757812	642.5330810546875	-294.8185729980469	-535.4303588867188	802.1671752929688	-309.1021118164062	nan	nan	nan	nan	nan	nan	nan	nan	nan	
254	2.53	-709.5659790039062	960.1483764648438	-53.81609725952148	-679.4102172851562	960.8709106445312	-180.9228210449219	-705.0610961914062	1030.490478515625	-116.7045288085938	-462.4848327636719	1197.833618164062	-70.0130615234375	-704.8115234375	1148.337036132812	-115.1745223999023	-641.8133544921875	1393.255126953125	-124.2580032348633	-497.2698364257812	1324.25537109375	-84.08670806884766	-718.8165283203125	1260.13671875	-65.76792144775391	-633.7854614257812	1355.951538085938	-223.0114288330078	-537.7409057617188	1366.287353515625	-261.1115417480469	-564.0602416992188	1252.5830078125	-334.1896667480469	-585.2044067382812	1051.28369140625	-355.6787109375	-655.1929321289062	1047.654296875	-307.1712951660156	-561.2062377929688	792.835693359375	-367.2397766113281	-585.290771484375	945.3428955078125	-365.9757080078125	-574.7613525390625	723.0972900390625	-362.3014526367188	-525.5619506835938	718.3134155273438	-320.2204895019531	-625.6068115234375	1380.259643554688	45.13250732421875	-657.4342041015625	1320.232788085938	106.6065216064453	-675.72314453125	1060.197021484375	171.1457214355469	-699.9000854492188	1041.315673828125	81.35299682617188	-497.2183837890625	888.36962890625	156.6398773193359	-535.58740234375	857.2537841796875	216.0670013427734	-641.7944946289062	1000.661376953125	191.2041625976562	-419.8924560546875	734.107666015625	175.7588195800781	-433.5688171386719	806.0369873046875	181.7858276367188	-489.6580505371094	786.1611328125	220.1333923339844	-601.6160888671875	1594.449462890625	-42.26822662353516	-398.1548461914062	1577.947509765625	-81.56918334960938	-446.9901123046875	1582.487426757812	6.584792137145996	-556.640625	1587.749267578125	-179.1981811523438	-568.2040405273438	908.4789428710938	-260.1233215332031	-659.9473876953125	901.242919921875	70.90944671630859	-548.4715576171875	927.5143432617188	54.78496551513672	-468.267822265625	934.6640625	-171.2828521728516	-371.9404296875	485.4215698242188	-227.2355346679688	-419.7447814941406	610.6519775390625	-243.4071197509766	-341.3934631347656	50.13770294189453	-256.0126647949219	-349.6622924804688	265.3294372558594	-256.1578063964844	-156.506103515625	95.86412048339844	-160.1552734375	-226.6066741943359	65.23195648193359	-131.7326965332031	-219.0283966064453	73.63914489746094	-244.5094146728516	-385.6460876464844	37.0948600769043	-196.3346405029297	-626.0318603515625	436.2996826171875	2.956461906433105	-594.3832397460938	692.7742919921875	69.56551361083984	-759.0802001953125	52.75704956054688	-91.43860626220703	-632.7536010742188	315.4971923828125	-31.15812492370605	-561.2799072265625	43.48917770385742	-116.4916610717773	-609.8905639648438	37.30666732788086	-166.0048675537109	-662.7699584960938	38.93270111083984	-59.165771484375	-801.014892578125	56.58639907836914	-146.2807769775391	-552.2759399414062	639.9891967773438	-292.2580871582031	-528.6497802734375	799.2516479492188	-306.5833740234375	nan	nan	nan	nan	nan	nan	nan	nan	nan	
255	2.54	-700.5719604492188	958.5552368164062	-54.47285079956055	-668.5450439453125	958.8976440429688	-181.1094665527344	-695.2994384765625	1028.464965820312	-116.9627838134766	-453.5198669433594	1195.653442382812	-67.39783477783203	-695.7532348632812	1146.177734375	-114.8984985351562	-632.4547729492188	1391.0830078125	-123.2613677978516	-488.3679504394531	1321.979248046875	-81.71277618408203	-710.07177734375	1257.9765625	-65.43457794189453	-623.572265625	1353.696899414062	-221.9281616210938	-527.216796875	1363.939575195312	-259.2779846191406	-553.3531494140625	1250.201293945312	-332.3655700683594	-575.7003173828125	1048.965209960938	-353.3730163574219	-645.9970703125	1045.892211914062	-305.1492004394531	-554.0043334960938	790.2533569335938	-364.8378295898438	-576.6185913085938	943.0567016601562	-363.5985717773438	-568.56103515625	720.6802368164062	-359.8460388183594	-519.6851806640625	715.138427734375	-317.4934387207031	-617.6897583007812	1378.094970703125	46.30609512329102	-650.068115234375	1318.108764648438	107.5187301635742	-668.7850341796875	1058.137329101562	172.4556121826172	-692.5237426757812	1039.12890625	82.59576416015625	-488.8753662109375	888.1016235351562	158.2449340820312	-526.9555053710938	856.5306396484375	217.5817565917969	-634.5206909179688	998.9627075195312	192.6180877685547	-409.9297180175781	734.606201171875	177.5033264160156	-424.2914123535156	806.4618530273438	183.4731903076172	-480.2533874511719	785.9864501953125	221.8594207763672	-593.2752075195312	1592.242309570312	-41.34092712402344	-389.4024353027344	1576.105590820312	-78.81963348388672	-438.9956970214844	1580.749755859375	8.89475154876709	-547.089111328125	1585.370727539062	-177.8495330810547	-556.4125366210938	905.6876831054688	-258.5428466796875	-653.1385498046875	900.0496215820312	71.4296875	-541.147705078125	925.7924194335938	56.57550811767578	-457.7808227539062	932.121826171875	-168.2949371337891	-361.8157653808594	481.7696838378906	-225.0793151855469	-411.8713684082031	606.30126953125	-242.089111328125	-307.9773254394531	49.41936874389648	-247.4434051513672	-328.3468017578125	264.3415832519531	-250.8710174560547	-129.7604370117188	105.653678894043	-144.5971374511719	-199.545166015625	72.12639617919922	-118.8059844970703	-187.2358856201172	79.03536987304688	-231.2659912109375	-354.070068359375	35.03581237792969	-189.4644775390625	-621.8635864257812	435.0050659179688	4.402637481689453	-588.0994873046875	690.835693359375	69.81230163574219	-758.9270629882812	52.89128112792969	-91.36502838134766	-629.8220825195312	314.1686401367188	-30.2311897277832	-561.1807250976562	43.28618240356445	-116.4514541625977	-609.924560546875	37.36856842041016	-165.9637908935547	-662.7337646484375	38.84259796142578	-59.0737190246582	-800.8560180664062	57.08616256713867	-146.1696929931641	-547.52099609375	637.3285522460938	-289.5957641601562	-521.5928955078125	796.2006225585938	-304.0478515625	nan	nan	nan	nan	nan	nan	nan	nan	nan	
